<mxfile host="app.diagrams.net" modified="2021-07-08T22:58:22.164Z" agent="5.0 (Windows NT 10.0; Win64; x64) AppleWebKit/537.36 (KHTML, like Gecko) Chrome/91.0.4472.124 Safari/537.36" etag="CWIkm1EDzFm_s_BUVqTM" version="14.8.4" type="github">
  <diagram id="WuvVM1MGpCM8jfQgkLHD" name="Page-1">
    <mxGraphModel dx="757" dy="1262" grid="1" gridSize="10" guides="1" tooltips="1" connect="1" arrows="1" fold="1" page="1" pageScale="1" pageWidth="827" pageHeight="1169" math="0" shadow="0">
      <root>
        <mxCell id="0" />
        <mxCell id="1" parent="0" />
        <mxCell id="teBzBykt3kORM-8nL4zh-33" value="" style="group" vertex="1" connectable="0" parent="1">
          <mxGeometry x="50" y="410" width="620" height="417.19000000000005" as="geometry" />
        </mxCell>
        <mxCell id="teBzBykt3kORM-8nL4zh-4" value="imageフォルダ" style="aspect=fixed;perimeter=ellipsePerimeter;html=1;align=center;shadow=0;dashed=0;spacingTop=3;image;image=img/lib/active_directory/folder.svg;" vertex="1" parent="teBzBykt3kORM-8nL4zh-33">
          <mxGeometry x="40" y="30" width="60" height="82.19" as="geometry" />
        </mxCell>
        <mxCell id="teBzBykt3kORM-8nL4zh-5" value="まだ整理されていない大量の画像群" style="aspect=fixed;perimeter=ellipsePerimeter;html=1;align=center;shadow=0;dashed=0;spacingTop=3;image;image=img/lib/active_directory/folder.svg;fontFamily=Helvetica;" vertex="1" parent="teBzBykt3kORM-8nL4zh-33">
          <mxGeometry x="560" y="335" width="60" height="82.19" as="geometry" />
        </mxCell>
        <mxCell id="teBzBykt3kORM-8nL4zh-13" value="target.csv&lt;br&gt;" style="shape=image;html=1;verticalAlign=top;verticalLabelPosition=bottom;labelBackgroundColor=#ffffff;imageAspect=0;aspect=fixed;image=https://cdn2.iconfinder.com/data/icons/file-formats-10/614/20_-_CSV-128.png;fontFamily=Helvetica;" vertex="1" parent="teBzBykt3kORM-8nL4zh-33">
          <mxGeometry x="170" y="194.9999999999999" width="88.91" height="88.91" as="geometry" />
        </mxCell>
        <mxCell id="teBzBykt3kORM-8nL4zh-14" style="edgeStyle=none;rounded=0;orthogonalLoop=1;jettySize=auto;html=1;fontFamily=Helvetica;entryX=0.25;entryY=0;entryDx=0;entryDy=0;" edge="1" parent="teBzBykt3kORM-8nL4zh-33" source="teBzBykt3kORM-8nL4zh-4" target="teBzBykt3kORM-8nL4zh-13">
          <mxGeometry relative="1" as="geometry">
            <mxPoint x="-10" y="74" as="targetPoint" />
          </mxGeometry>
        </mxCell>
        <mxCell id="teBzBykt3kORM-8nL4zh-15" value="切り抜きのサイズを記録" style="edgeLabel;html=1;align=center;verticalAlign=middle;resizable=0;points=[];fontFamily=Helvetica;" vertex="1" connectable="0" parent="teBzBykt3kORM-8nL4zh-14">
          <mxGeometry x="0.6168" y="-1" relative="1" as="geometry">
            <mxPoint x="-13" y="-12" as="offset" />
          </mxGeometry>
        </mxCell>
        <mxCell id="teBzBykt3kORM-8nL4zh-3" value="tempフォルダ" style="aspect=fixed;perimeter=ellipsePerimeter;html=1;align=center;shadow=0;dashed=0;spacingTop=3;image;image=img/lib/active_directory/folder.svg;" vertex="1" parent="teBzBykt3kORM-8nL4zh-33">
          <mxGeometry x="310" y="30" width="60" height="82.19" as="geometry" />
        </mxCell>
        <mxCell id="teBzBykt3kORM-8nL4zh-8" style="edgeStyle=none;rounded=0;orthogonalLoop=1;jettySize=auto;html=1;entryX=1;entryY=0.5;entryDx=0;entryDy=0;fontFamily=Helvetica;" edge="1" parent="teBzBykt3kORM-8nL4zh-33" source="teBzBykt3kORM-8nL4zh-3" target="teBzBykt3kORM-8nL4zh-4">
          <mxGeometry relative="1" as="geometry" />
        </mxCell>
        <mxCell id="teBzBykt3kORM-8nL4zh-9" value="連番になるように番号をふる&lt;br&gt;(fetch_image.py)&lt;br&gt;" style="edgeLabel;html=1;align=center;verticalAlign=middle;resizable=0;points=[];fontFamily=Helvetica;" vertex="1" connectable="0" parent="teBzBykt3kORM-8nL4zh-8">
          <mxGeometry x="0.3053" y="3" relative="1" as="geometry">
            <mxPoint x="41" y="-3" as="offset" />
          </mxGeometry>
        </mxCell>
        <mxCell id="teBzBykt3kORM-8nL4zh-6" style="rounded=0;orthogonalLoop=1;jettySize=auto;html=1;fontFamily=Helvetica;horizontal=1;" edge="1" parent="teBzBykt3kORM-8nL4zh-33" source="teBzBykt3kORM-8nL4zh-5" target="teBzBykt3kORM-8nL4zh-3">
          <mxGeometry relative="1" as="geometry" />
        </mxCell>
        <mxCell id="teBzBykt3kORM-8nL4zh-7" value="使う画像を取ってくる(check_face.py)" style="edgeLabel;html=1;align=center;verticalAlign=middle;resizable=0;points=[];fontFamily=Helvetica;" vertex="1" connectable="0" parent="teBzBykt3kORM-8nL4zh-6">
          <mxGeometry x="0.2828" y="6" relative="1" as="geometry">
            <mxPoint x="74" y="103" as="offset" />
          </mxGeometry>
        </mxCell>
        <mxCell id="teBzBykt3kORM-8nL4zh-18" value="&lt;font style=&quot;font-size: 20px&quot;&gt;dataフォルダ&lt;/font&gt;" style="rounded=1;whiteSpace=wrap;html=1;fontFamily=Helvetica;fillColor=none;labelPosition=center;verticalLabelPosition=top;align=center;verticalAlign=bottom;fontStyle=1" vertex="1" parent="teBzBykt3kORM-8nL4zh-33">
          <mxGeometry width="400" height="355" as="geometry" />
        </mxCell>
        <mxCell id="teBzBykt3kORM-8nL4zh-35" value="(annotation.py)" style="text;html=1;strokeColor=none;fillColor=none;align=center;verticalAlign=middle;whiteSpace=wrap;rounded=0;fontFamily=Helvetica;fontSize=12;" vertex="1" parent="teBzBykt3kORM-8nL4zh-33">
          <mxGeometry x="110" y="165.00000000000003" width="40" height="20" as="geometry" />
        </mxCell>
        <mxCell id="teBzBykt3kORM-8nL4zh-34" value="" style="group" vertex="1" connectable="0" parent="1">
          <mxGeometry x="170" y="10" width="410" height="420" as="geometry" />
        </mxCell>
        <mxCell id="teBzBykt3kORM-8nL4zh-22" value="annotation" style="aspect=fixed;perimeter=ellipsePerimeter;html=1;align=center;shadow=0;dashed=0;spacingTop=3;image;image=img/lib/active_directory/folder.svg;fontFamily=Helvetica;fillColor=none;fontSize=15;" vertex="1" parent="teBzBykt3kORM-8nL4zh-34">
          <mxGeometry width="46" height="63.01" as="geometry" />
        </mxCell>
        <mxCell id="teBzBykt3kORM-8nL4zh-23" value="data" style="aspect=fixed;perimeter=ellipsePerimeter;html=1;align=center;shadow=0;dashed=0;spacingTop=3;image;image=img/lib/active_directory/folder.svg;fontFamily=Helvetica;fillColor=none;fontSize=15;" vertex="1" parent="teBzBykt3kORM-8nL4zh-34">
          <mxGeometry x="199.99999999999994" y="130" width="46" height="63.01" as="geometry" />
        </mxCell>
        <mxCell id="teBzBykt3kORM-8nL4zh-26" style="edgeStyle=orthogonalEdgeStyle;rounded=0;orthogonalLoop=1;jettySize=auto;html=1;entryX=0;entryY=0.5;entryDx=0;entryDy=0;fontFamily=Helvetica;fontSize=15;endArrow=none;endFill=0;" edge="1" parent="teBzBykt3kORM-8nL4zh-34" source="teBzBykt3kORM-8nL4zh-22" target="teBzBykt3kORM-8nL4zh-23">
          <mxGeometry relative="1" as="geometry" />
        </mxCell>
        <mxCell id="teBzBykt3kORM-8nL4zh-24" value="make_animeface_dataset&lt;br&gt;" style="aspect=fixed;perimeter=ellipsePerimeter;html=1;align=center;shadow=0;dashed=0;spacingTop=3;image;image=img/lib/active_directory/folder.svg;fontFamily=Helvetica;fillColor=none;fontSize=15;" vertex="1" parent="teBzBykt3kORM-8nL4zh-34">
          <mxGeometry x="189.99999999999994" width="46" height="63.01" as="geometry" />
        </mxCell>
        <mxCell id="teBzBykt3kORM-8nL4zh-25" style="edgeStyle=orthogonalEdgeStyle;rounded=0;orthogonalLoop=1;jettySize=auto;html=1;entryX=0;entryY=0.5;entryDx=0;entryDy=0;fontFamily=Helvetica;fontSize=15;endArrow=none;endFill=0;" edge="1" parent="teBzBykt3kORM-8nL4zh-34" source="teBzBykt3kORM-8nL4zh-22" target="teBzBykt3kORM-8nL4zh-24">
          <mxGeometry relative="1" as="geometry">
            <Array as="points">
              <mxPoint x="96" y="32" />
              <mxPoint x="96" y="32" />
            </Array>
          </mxGeometry>
        </mxCell>
        <mxCell id="teBzBykt3kORM-8nL4zh-27" value="temp" style="aspect=fixed;perimeter=ellipsePerimeter;html=1;align=center;shadow=0;dashed=0;spacingTop=3;image;image=img/lib/active_directory/folder.svg;fontFamily=Helvetica;fillColor=none;fontSize=15;" vertex="1" parent="teBzBykt3kORM-8nL4zh-34">
          <mxGeometry x="352" y="240" width="46" height="63.01" as="geometry" />
        </mxCell>
        <mxCell id="teBzBykt3kORM-8nL4zh-31" style="edgeStyle=orthogonalEdgeStyle;rounded=0;orthogonalLoop=1;jettySize=auto;html=1;entryX=0;entryY=0.5;entryDx=0;entryDy=0;fontFamily=Helvetica;fontSize=15;endArrow=none;endFill=0;" edge="1" parent="teBzBykt3kORM-8nL4zh-34" source="teBzBykt3kORM-8nL4zh-23" target="teBzBykt3kORM-8nL4zh-27">
          <mxGeometry relative="1" as="geometry">
            <Array as="points">
              <mxPoint x="290" y="162" />
              <mxPoint x="290" y="272" />
            </Array>
          </mxGeometry>
        </mxCell>
        <mxCell id="teBzBykt3kORM-8nL4zh-28" value="image" style="aspect=fixed;perimeter=ellipsePerimeter;html=1;align=center;shadow=0;dashed=0;spacingTop=3;image;image=img/lib/active_directory/folder.svg;fontFamily=Helvetica;fillColor=none;fontSize=15;" vertex="1" parent="teBzBykt3kORM-8nL4zh-34">
          <mxGeometry x="352" y="130" width="46" height="63.01" as="geometry" />
        </mxCell>
        <mxCell id="teBzBykt3kORM-8nL4zh-30" style="edgeStyle=orthogonalEdgeStyle;rounded=0;orthogonalLoop=1;jettySize=auto;html=1;entryX=0;entryY=0.5;entryDx=0;entryDy=0;fontFamily=Helvetica;fontSize=15;endArrow=none;endFill=0;" edge="1" parent="teBzBykt3kORM-8nL4zh-34" source="teBzBykt3kORM-8nL4zh-23" target="teBzBykt3kORM-8nL4zh-28">
          <mxGeometry relative="1" as="geometry" />
        </mxCell>
        <mxCell id="teBzBykt3kORM-8nL4zh-29" value="target.csv" style="shape=image;html=1;verticalAlign=top;verticalLabelPosition=bottom;labelBackgroundColor=#ffffff;imageAspect=0;aspect=fixed;image=https://cdn2.iconfinder.com/data/icons/file-formats-10/614/20_-_CSV-128.png;fontFamily=Helvetica;fontSize=15;fillColor=none;" vertex="1" parent="teBzBykt3kORM-8nL4zh-34">
          <mxGeometry x="340" y="350" width="70" height="70" as="geometry" />
        </mxCell>
        <mxCell id="teBzBykt3kORM-8nL4zh-32" style="edgeStyle=orthogonalEdgeStyle;rounded=0;orthogonalLoop=1;jettySize=auto;html=1;entryX=0;entryY=0.5;entryDx=0;entryDy=0;fontFamily=Helvetica;fontSize=15;endArrow=none;endFill=0;" edge="1" parent="teBzBykt3kORM-8nL4zh-34" source="teBzBykt3kORM-8nL4zh-23" target="teBzBykt3kORM-8nL4zh-29">
          <mxGeometry relative="1" as="geometry">
            <Array as="points">
              <mxPoint x="290" y="162" />
              <mxPoint x="290" y="385" />
            </Array>
          </mxGeometry>
        </mxCell>
      </root>
    </mxGraphModel>
  </diagram>
</mxfile>
